<?xml version="1.0" encoding="UTF-8"?>
<svg id="uuid-79889a4f-3097-4782-b9cb-ca1d90d86e66" xmlns="http://www.w3.org/2000/svg" version="1.1" viewBox="0 0 249.6 247.8">
  <!-- Generator: Adobe Illustrator 29.1.0, SVG Export Plug-In . SVG Version: 2.1.0 Build 142)  -->
  <defs>
    <style>
      .st0 {
        fill: #4555a0;
      }

      .st1 {
        fill: #e25a48;
      }

      .st2 {
        fill: #0f1122;
      }

      .st3 {
        fill: #fff;
      }

      .st4 {
        fill: #fcbe35;
      }

      .st5 {
        fill: none;
        stroke: #fff;
        stroke-miterlimit: 10;
        stroke-width: 3px;
      }

      .st6 {
        fill: #10948b;
      }

      .st7 {
        fill: #367ebd;
      }

      .st8 {
        fill: #f7933d;
      }
    </style>
  </defs>
  <g id="uuid-d1da9af3-9382-4fca-9170-3bade7291d64">
    <rect id="uuid-774e0092-a645-4f56-b508-947aba850203" class="st2" x=".9" y="0" width="247.8" height="247.8" rx="15.7" ry="15.7"/>
  </g>
  <g>
    <g>
      <path class="st3" d="M39.4,26.5c1.3-2.1,3.3-3.2,5.9-3.2s4.9,1,6.5,3c1.6,2,2.4,4.6,2.4,7.7s-.9,6.1-2.6,8.1c-1.8,2-3.9,3-6.4,3s-4-.9-5.4-2.7h0v10.2h-3.5v-28.8h3.2v2.7s0,0,0,0ZM44.9,42.2c1.6,0,3-.7,4.1-2,1.1-1.4,1.6-3.4,1.6-6.1s-.5-4.5-1.6-5.9-2.4-2.1-4-2.1-3,.8-4.1,2.3c-1.1,1.5-1.6,3.5-1.6,5.9s.5,4.5,1.5,5.9c1,1.3,2.4,2,4,2h0Z"/>
      <path class="st3" d="M75.5,23.8l-8,21.1s0,0,0,.1c-.8,2.4-1.6,4.3-2.7,5.7-1,1.5-2.5,2.2-4.3,2.2s-1.4-.1-2.3-.4l-.4-3.3c.7.2,1.3.3,2,.3,1.3,0,2.2-.4,2.7-1.1.5-.7,1.1-2,1.7-3.9l-7.9-20.8h3.8l4.9,13.6c.3.8.6,1.9.9,3.2h0c.3-1.5.7-3,1.3-4.3l4.6-12.5s3.6,0,3.6,0Z"/>
      <path class="st3" d="M104.4,40.6c-3.6,3-7.6,4.5-11.9,4.5s-8-1.3-10.6-4c-2.7-2.7-4-6.3-4-10.7s.6-5.2,1.7-7.6,2.7-4.2,4.9-5.4c2.1-1.3,4.8-1.9,7.9-1.9s5.8.7,7.8,2.1c2,1.4,3.3,3.5,3.9,6.4l-3.4,1c-.5-2.1-1.5-3.6-2.9-4.7s-3.2-1.6-5.4-1.6c-3.5,0-6.1,1.1-7.8,3.2-1.8,2.1-2.6,4.9-2.6,8.3s.4,4.7,1.3,6.4c.9,1.7,2.1,3,3.8,3.8,1.7.9,3.5,1.3,5.5,1.3,3,0,5.8-1,8.4-3v-5.3h-8.5v-3.4h12.1v10.6h0Z"/>
      <path class="st3" d="M134.4,35.5c-.8,3.2-2.3,5.6-4.4,7.2-2.1,1.6-4.6,2.4-7.5,2.4-4.7,0-8.1-1.5-10.3-4.4-2.1-2.9-3.2-6.5-3.2-10.6s1.3-8.2,3.8-10.8,5.8-3.9,9.7-3.9,5.2.7,7.2,2.1c2,1.4,3.4,3.5,4.2,6.2l-3.7.9c-.6-2-1.6-3.5-2.9-4.5-1.3-1-2.9-1.5-4.8-1.5-3.1,0-5.5,1-7.1,3.1-1.6,2.1-2.4,4.8-2.4,8.3s.9,7,2.6,8.9c1.7,1.9,3.9,2.9,6.7,2.9s4.1-.6,5.5-1.8c1.4-1.2,2.4-3,2.9-5.5l3.8,1h0Z"/>
      <path class="st3" d="M155.7,44.6h-4.3l-5.4-8.2-5.5,8.2h-4.3l7.6-10.8-7-10h4.4c2.8,4.3,4.4,6.7,4.7,7.2l5.1-7.2h4.2l-7.2,9.8,7.8,11Z"/>
      <path class="st3" d="M184.7,40.6c-3.6,3-7.6,4.5-11.9,4.5s-7.9-1.3-10.6-4c-2.7-2.7-4-6.3-4-10.7s.6-5.2,1.7-7.6,2.7-4.2,4.9-5.4,4.8-1.9,7.9-1.9,5.8.7,7.8,2.1,3.3,3.5,3.9,6.4l-3.4,1c-.5-2.1-1.5-3.6-2.9-4.7-1.4-1-3.2-1.6-5.4-1.6-3.5,0-6.1,1.1-7.8,3.2s-2.6,4.9-2.6,8.3.4,4.7,1.3,6.4c.9,1.7,2.1,3,3.8,3.8,1.7.9,3.5,1.3,5.5,1.3,3,0,5.8-1,8.4-3v-5.3h-8.5v-3.4h12.1v10.6Z"/>
      <path class="st3" d="M214.6,35.5c-.8,3.2-2.3,5.6-4.4,7.2-2.1,1.6-4.6,2.4-7.5,2.4-4.7,0-8.1-1.5-10.3-4.4-2.1-2.9-3.2-6.5-3.2-10.6s1.3-8.2,3.8-10.8c2.5-2.6,5.8-3.9,9.7-3.9s5.2.7,7.2,2.1c2,1.4,3.4,3.5,4.2,6.2l-3.7.9c-.6-2-1.6-3.5-2.9-4.5-1.3-1-2.9-1.5-4.8-1.5-3.1,0-5.5,1-7.1,3.1-1.6,2.1-2.4,4.8-2.4,8.3s.9,7,2.6,8.9,3.9,2.9,6.7,2.9,4.1-.6,5.5-1.8c1.4-1.2,2.4-3,2.9-5.5l3.8,1h0Z"/>
    </g>
    <g>
      <path class="st3" d="M39.4,26.5c1.3-2.1,3.3-3.2,5.9-3.2s4.9,1,6.5,3c1.6,2,2.4,4.6,2.4,7.7s-.9,6.1-2.6,8.1c-1.8,2-3.9,3-6.4,3s-4-.9-5.4-2.7h0v10.2h-3.5v-28.8h3.2v2.7s0,0,0,0ZM44.9,42.2c1.6,0,3-.7,4.1-2,1.1-1.4,1.6-3.4,1.6-6.1s-.5-4.5-1.6-5.9-2.4-2.1-4-2.1-3,.8-4.1,2.3c-1.1,1.5-1.6,3.5-1.6,5.9s.5,4.5,1.5,5.9c1,1.3,2.4,2,4,2h0Z"/>
      <path class="st3" d="M75.5,23.8l-8,21.1s0,0,0,.1c-.8,2.4-1.6,4.3-2.7,5.7-1,1.5-2.5,2.2-4.3,2.2s-1.4-.1-2.3-.4l-.4-3.3c.7.2,1.3.3,2,.3,1.3,0,2.2-.4,2.7-1.1.5-.7,1.1-2,1.7-3.9l-7.9-20.8h3.8l4.9,13.6c.3.8.6,1.9.9,3.2h0c.3-1.5.7-3,1.3-4.3l4.6-12.5s3.6,0,3.6,0Z"/>
      <path class="st3" d="M104.4,40.6c-3.6,3-7.6,4.5-11.9,4.5s-8-1.3-10.6-4c-2.7-2.7-4-6.3-4-10.7s.6-5.2,1.7-7.6,2.7-4.2,4.9-5.4c2.1-1.3,4.8-1.9,7.9-1.9s5.8.7,7.8,2.1c2,1.4,3.3,3.5,3.9,6.4l-3.4,1c-.5-2.1-1.5-3.6-2.9-4.7s-3.2-1.6-5.4-1.6c-3.5,0-6.1,1.1-7.8,3.2-1.8,2.1-2.6,4.9-2.6,8.3s.4,4.7,1.3,6.4c.9,1.7,2.1,3,3.8,3.8,1.7.9,3.5,1.3,5.5,1.3,3,0,5.8-1,8.4-3v-5.3h-8.5v-3.4h12.1v10.6h0Z"/>
      <path class="st3" d="M134.4,35.5c-.8,3.2-2.3,5.6-4.4,7.2-2.1,1.6-4.6,2.4-7.5,2.4-4.7,0-8.1-1.5-10.3-4.4-2.1-2.9-3.2-6.5-3.2-10.6s1.3-8.2,3.8-10.8,5.8-3.9,9.7-3.9,5.2.7,7.2,2.1c2,1.4,3.4,3.5,4.2,6.2l-3.7.9c-.6-2-1.6-3.5-2.9-4.5-1.3-1-2.9-1.5-4.8-1.5-3.1,0-5.5,1-7.1,3.1-1.6,2.1-2.4,4.8-2.4,8.3s.9,7,2.6,8.9c1.7,1.9,3.9,2.9,6.7,2.9s4.1-.6,5.5-1.8c1.4-1.2,2.4-3,2.9-5.5l3.8,1h0Z"/>
      <path class="st3" d="M155.7,44.6h-4.3l-5.4-8.2-5.5,8.2h-4.3l7.6-10.8-7-10h4.4c2.8,4.3,4.4,6.7,4.7,7.2l5.1-7.2h4.2l-7.2,9.8,7.8,11Z"/>
      <path class="st3" d="M184.7,40.6c-3.6,3-7.6,4.5-11.9,4.5s-7.9-1.3-10.6-4c-2.7-2.7-4-6.3-4-10.7s.6-5.2,1.7-7.6,2.7-4.2,4.9-5.4,4.8-1.9,7.9-1.9,5.8.7,7.8,2.1,3.3,3.5,3.9,6.4l-3.4,1c-.5-2.1-1.5-3.6-2.9-4.7-1.4-1-3.2-1.6-5.4-1.6-3.5,0-6.1,1.1-7.8,3.2s-2.6,4.9-2.6,8.3.4,4.7,1.3,6.4c.9,1.7,2.1,3,3.8,3.8,1.7.9,3.5,1.3,5.5,1.3,3,0,5.8-1,8.4-3v-5.3h-8.5v-3.4h12.1v10.6Z"/>
      <path class="st3" d="M214.6,35.5c-.8,3.2-2.3,5.6-4.4,7.2-2.1,1.6-4.6,2.4-7.5,2.4-4.7,0-8.1-1.5-10.3-4.4-2.1-2.9-3.2-6.5-3.2-10.6s1.3-8.2,3.8-10.8c2.5-2.6,5.8-3.9,9.7-3.9s5.2.7,7.2,2.1c2,1.4,3.4,3.5,4.2,6.2l-3.7.9c-.6-2-1.6-3.5-2.9-4.5-1.3-1-2.9-1.5-4.8-1.5-3.1,0-5.5,1-7.1,3.1-1.6,2.1-2.4,4.8-2.4,8.3s.9,7,2.6,8.9,3.9,2.9,6.7,2.9,4.1-.6,5.5-1.8c1.4-1.2,2.4-3,2.9-5.5l3.8,1h0Z"/>
    </g>
  </g>
  <g>
    <g>
      <polyline class="st5" points="30.2 84.7 30.2 219.7 208 219.7"/>
      <polygon class="st3" points="22.3 87.1 30.2 73.3 38.2 87.1 22.3 87.1"/>
      <polygon class="st3" points="205.6 227.6 219.4 219.7 205.6 211.8 205.6 227.6"/>
    </g>
    <circle class="st6" cx="67.7" cy="156.6" r="16.8"/>
    <circle class="st1" cx="104.1" cy="188.4" r="8.1"/>
    <circle class="st7" cx="150.4" cy="167.1" r="10.6"/>
    <circle class="st4" cx="116.2" cy="125.7" r="10.6"/>
    <circle class="st8" cx="164.7" cy="92.5" r="12.1"/>
    <circle class="st0" cx="203.6" cy="133.2" r="8.5"/>
  </g>
</svg>