<?xml version="1.0" encoding="UTF-8"?>
<svg id="uuid-79889a4f-3097-4782-b9cb-ca1d90d86e66" data-name="uuid-2beda607-45ec-4c5e-a0d7-66492358ea4c" xmlns="http://www.w3.org/2000/svg" width="88.05333mm" height="87.41833mm" viewBox="0 0 249.60001 247.8">
  <g id="uuid-d1da9af3-9382-4fca-9170-3bade7291d64" data-name="uuid-89f78b25-2410-498b-99e8-b9be8a67569d">
    <rect id="uuid-774e0092-a645-4f56-b508-947aba850203" data-name="uuid-6d93f417-f005-48d6-90c9-af8e692d70fa" x=".9" width="247.8" height="247.8" rx="15.7" ry="15.7" fill="#0f1122"/>
  </g>
  <g>
    <g>
      <path d="M39.42236,26.46764c1.31885-2.10254,3.29736-3.15381,5.93555-3.15381,2.72949,0,4.88379.98926,6.46436,2.96777,1.58008,1.97852,2.37012,4.5542,2.37012,7.72754,0,3.38281-.875,6.06982-2.625,8.06104-1.75,1.9917-3.89795,2.9873-6.44434,2.9873-2.2334,0-4.02246-.88818-5.36768-2.66406h-.09766v10.1665h-3.52637v-28.77588h3.21289v2.68359h.07812ZM44.8877,42.15806c1.64551,0,3.00684-.68213,4.08447-2.04688,1.07715-1.36426,1.61572-3.39844,1.61572-6.10205,0-2.54639-.51904-4.50537-1.55713-5.87646s-2.36719-2.05664-3.98633-2.05664c-1.67188,0-3.0459.76367-4.12354,2.2915-1.07715,1.52832-1.61572,3.50684-1.61572,5.93555,0,2.57275.51562,4.5249,1.54736,5.85693,1.03125,1.33203,2.37646,1.99805,4.03516,1.99805Z" fill="#fff"/>
      <path d="M75.46582,23.78404l-7.95312,21.13623c-.01318.02588-.02637.07178-.03906.13721-.75781,2.35059-1.64258,4.26074-2.6543,5.72949-1.01221,1.46924-2.45215,2.2041-4.31934,2.2041-.62695,0-1.39111-.13086-2.29199-.39209l-.35254-3.33008c.67871.20898,1.34473.31348,1.99805.31348,1.30566,0,2.20996-.35938,2.71289-1.07715.50244-.71826,1.06787-2.01758,1.69434-3.89844l-7.89404-20.82275h3.80029l4.89697,13.61426c.28711.83594.59424,1.91309.9209,3.23193h.07812c.32617-1.51465.74463-2.95801,1.25391-4.3291l4.56396-12.51709h3.58496Z" fill="#fff"/>
      <path d="M104.41797,40.55211c-3.61719,3.00391-7.57422,4.50537-11.87061,4.50537-4.40088,0-7.9502-1.3418-10.64648-4.02539-2.69678-2.68359-4.04492-6.25195-4.04492-10.70557,0-2.71582.55127-5.24609,1.65479-7.59033s2.72949-4.15967,4.87793-5.4458c2.14795-1.28613,4.77637-1.92969,7.88428-1.92969,3.22559,0,5.81445.7085,7.76709,2.12549,1.95215,1.41699,3.26807,3.54248,3.94727,6.37598l-3.40869.95996c-.53564-2.06299-1.49512-3.61426-2.87939-4.65234s-3.19287-1.55713-5.42627-1.55713c-3.46045,0-6.07227,1.05762-7.83545,3.17334-1.7627,2.11572-2.64453,4.88428-2.64453,8.30566,0,2.55957.42773,4.68848,1.2832,6.38574.85498,1.69775,2.12207,2.98096,3.80029,3.84912,1.67773.86865,3.50293,1.30273,5.4751,1.30273,3.00342,0,5.79834-.98584,8.38379-2.95801v-5.32812h-8.4624v-3.42773h12.14502v10.63672Z" fill="#fff"/>
      <path d="M134.38965,35.45885c-.83594,3.22559-2.2959,5.63184-4.37891,7.21875-2.08301,1.58643-4.58008,2.37988-7.49219,2.37988-4.70166,0-8.12646-1.47217-10.27441-4.41748-2.14844-2.94482-3.22266-6.48682-3.22266-10.62695,0-4.5835,1.26367-8.17139,3.79053-10.76367s5.77539-3.88867,9.74561-3.88867c2.79492,0,5.18457.71191,7.16895,2.13525,1.98535,1.42334,3.37598,3.50635,4.17285,6.24902l-3.72168.88135c-.62695-1.99805-1.58008-3.49951-2.86035-4.50537-1.28027-1.00537-2.87939-1.5083-4.79883-1.5083-3.13428,0-5.51123,1.02832-7.13037,3.08496-1.61963,2.05713-2.4292,4.81592-2.4292,8.27637,0,3.99609.85205,6.96729,2.55615,8.91309,1.70459,1.9458,3.92773,2.91846,6.67041,2.91846,2.24561,0,4.07129-.60693,5.47461-1.82178,1.4043-1.21436,2.38672-3.04248,2.94824-5.48486l3.78125.95996Z" fill="#fff"/>
      <path d="M155.74121,44.56773h-4.34961l-5.40625-8.22754-5.46484,8.22754h-4.29004l7.62012-10.83252-7.0127-9.95117h4.36816c2.84668,4.29639,4.40039,6.69287,4.66211,7.18896l5.09277-7.18896h4.21191l-7.18945,9.75537,7.75781,11.02832Z" fill="#fff"/>
      <path d="M184.6543,40.55211c-3.61719,3.00391-7.57422,4.50537-11.87109,4.50537-4.40039,0-7.94922-1.3418-10.64648-4.02539-2.69629-2.68359-4.04492-6.25195-4.04492-10.70557,0-2.71582.55176-5.24609,1.65527-7.59033s2.72949-4.15967,4.87793-5.4458,4.77637-1.92969,7.88477-1.92969c3.22461,0,5.81445.7085,7.7666,2.12549s3.26758,3.54248,3.94727,6.37598l-3.4082.95996c-.53613-2.06299-1.49609-3.61426-2.87988-4.65234-1.38477-1.03809-3.19336-1.55713-5.42578-1.55713-3.46094,0-6.07324,1.05762-7.83594,3.17334s-2.64453,4.88428-2.64453,8.30566c0,2.55957.42773,4.68848,1.2832,6.38574.85547,1.69775,2.12207,2.98096,3.7998,3.84912,1.67871.86865,3.50391,1.30273,5.47559,1.30273,3.00293,0,5.79785-.98584,8.38379-2.95801v-5.32812h-8.46191v-3.42773h12.14453v10.63672Z" fill="#fff"/>
      <path d="M214.62598,35.45885c-.83594,3.22559-2.2959,5.63184-4.37891,7.21875-2.08301,1.58643-4.58008,2.37988-7.49219,2.37988-4.70117,0-8.12695-1.47217-10.27441-4.41748-2.14844-2.94482-3.22266-6.48682-3.22266-10.62695,0-4.5835,1.26367-8.17139,3.79102-10.76367,2.52637-2.59229,5.77441-3.88867,9.74512-3.88867,2.79395,0,5.18457.71191,7.16895,2.13525,1.98535,1.42334,3.37598,3.50635,4.17285,6.24902l-3.72168.88135c-.62695-1.99805-1.58008-3.49951-2.86035-4.50537-1.28027-1.00537-2.87891-1.5083-4.79883-1.5083-3.13477,0-5.51172,1.02832-7.13086,3.08496-1.61914,2.05713-2.42871,4.81592-2.42871,8.27637,0,3.99609.85254,6.96729,2.55664,8.91309s3.92773,2.91846,6.66992,2.91846c2.24609,0,4.07129-.60693,5.47461-1.82178,1.4043-1.21436,2.38672-3.04248,2.94824-5.48486l3.78125.95996Z" fill="#fff"/>
    </g>
    <g>
      <path d="M39.42236,26.46764c1.31885-2.10254,3.29736-3.15381,5.93555-3.15381,2.72949,0,4.88379.98926,6.46436,2.96777,1.58008,1.97852,2.37012,4.5542,2.37012,7.72754,0,3.38281-.875,6.06982-2.625,8.06104-1.75,1.9917-3.89795,2.9873-6.44434,2.9873-2.2334,0-4.02246-.88818-5.36768-2.66406h-.09766v10.1665h-3.52637v-28.77588h3.21289v2.68359h.07812ZM44.8877,42.15806c1.64551,0,3.00684-.68213,4.08447-2.04688,1.07715-1.36426,1.61572-3.39844,1.61572-6.10205,0-2.54639-.51904-4.50537-1.55713-5.87646s-2.36719-2.05664-3.98633-2.05664c-1.67188,0-3.0459.76367-4.12354,2.2915-1.07715,1.52832-1.61572,3.50684-1.61572,5.93555,0,2.57275.51562,4.5249,1.54736,5.85693,1.03125,1.33203,2.37646,1.99805,4.03516,1.99805Z" fill="#fff"/>
      <path d="M75.46582,23.78404l-7.95312,21.13623c-.01318.02588-.02637.07178-.03906.13721-.75781,2.35059-1.64258,4.26074-2.6543,5.72949-1.01221,1.46924-2.45215,2.2041-4.31934,2.2041-.62695,0-1.39111-.13086-2.29199-.39209l-.35254-3.33008c.67871.20898,1.34473.31348,1.99805.31348,1.30566,0,2.20996-.35938,2.71289-1.07715.50244-.71826,1.06787-2.01758,1.69434-3.89844l-7.89404-20.82275h3.80029l4.89697,13.61426c.28711.83594.59424,1.91309.9209,3.23193h.07812c.32617-1.51465.74463-2.95801,1.25391-4.3291l4.56396-12.51709h3.58496Z" fill="#fff"/>
      <path d="M104.41797,40.55211c-3.61719,3.00391-7.57422,4.50537-11.87061,4.50537-4.40088,0-7.9502-1.3418-10.64648-4.02539-2.69678-2.68359-4.04492-6.25195-4.04492-10.70557,0-2.71582.55127-5.24609,1.65479-7.59033s2.72949-4.15967,4.87793-5.4458c2.14795-1.28613,4.77637-1.92969,7.88428-1.92969,3.22559,0,5.81445.7085,7.76709,2.12549,1.95215,1.41699,3.26807,3.54248,3.94727,6.37598l-3.40869.95996c-.53564-2.06299-1.49512-3.61426-2.87939-4.65234s-3.19287-1.55713-5.42627-1.55713c-3.46045,0-6.07227,1.05762-7.83545,3.17334-1.7627,2.11572-2.64453,4.88428-2.64453,8.30566,0,2.55957.42773,4.68848,1.2832,6.38574.85498,1.69775,2.12207,2.98096,3.80029,3.84912,1.67773.86865,3.50293,1.30273,5.4751,1.30273,3.00342,0,5.79834-.98584,8.38379-2.95801v-5.32812h-8.4624v-3.42773h12.14502v10.63672Z" fill="#fff"/>
      <path d="M134.38965,35.45885c-.83594,3.22559-2.2959,5.63184-4.37891,7.21875-2.08301,1.58643-4.58008,2.37988-7.49219,2.37988-4.70166,0-8.12646-1.47217-10.27441-4.41748-2.14844-2.94482-3.22266-6.48682-3.22266-10.62695,0-4.5835,1.26367-8.17139,3.79053-10.76367s5.77539-3.88867,9.74561-3.88867c2.79492,0,5.18457.71191,7.16895,2.13525,1.98535,1.42334,3.37598,3.50635,4.17285,6.24902l-3.72168.88135c-.62695-1.99805-1.58008-3.49951-2.86035-4.50537-1.28027-1.00537-2.87939-1.5083-4.79883-1.5083-3.13428,0-5.51123,1.02832-7.13037,3.08496-1.61963,2.05713-2.4292,4.81592-2.4292,8.27637,0,3.99609.85205,6.96729,2.55615,8.91309,1.70459,1.9458,3.92773,2.91846,6.67041,2.91846,2.24561,0,4.07129-.60693,5.47461-1.82178,1.4043-1.21436,2.38672-3.04248,2.94824-5.48486l3.78125.95996Z" fill="#fff"/>
      <path d="M155.74121,44.56773h-4.34961l-5.40625-8.22754-5.46484,8.22754h-4.29004l7.62012-10.83252-7.0127-9.95117h4.36816c2.84668,4.29639,4.40039,6.69287,4.66211,7.18896l5.09277-7.18896h4.21191l-7.18945,9.75537,7.75781,11.02832Z" fill="#fff"/>
      <path d="M184.6543,40.55211c-3.61719,3.00391-7.57422,4.50537-11.87109,4.50537-4.40039,0-7.94922-1.3418-10.64648-4.02539-2.69629-2.68359-4.04492-6.25195-4.04492-10.70557,0-2.71582.55176-5.24609,1.65527-7.59033s2.72949-4.15967,4.87793-5.4458,4.77637-1.92969,7.88477-1.92969c3.22461,0,5.81445.7085,7.7666,2.12549s3.26758,3.54248,3.94727,6.37598l-3.4082.95996c-.53613-2.06299-1.49609-3.61426-2.87988-4.65234-1.38477-1.03809-3.19336-1.55713-5.42578-1.55713-3.46094,0-6.07324,1.05762-7.83594,3.17334s-2.64453,4.88428-2.64453,8.30566c0,2.55957.42773,4.68848,1.2832,6.38574.85547,1.69775,2.12207,2.98096,3.7998,3.84912,1.67871.86865,3.50391,1.30273,5.47559,1.30273,3.00293,0,5.79785-.98584,8.38379-2.95801v-5.32812h-8.46191v-3.42773h12.14453v10.63672Z" fill="#fff"/>
      <path d="M214.62598,35.45885c-.83594,3.22559-2.2959,5.63184-4.37891,7.21875-2.08301,1.58643-4.58008,2.37988-7.49219,2.37988-4.70117,0-8.12695-1.47217-10.27441-4.41748-2.14844-2.94482-3.22266-6.48682-3.22266-10.62695,0-4.5835,1.26367-8.17139,3.79102-10.76367,2.52637-2.59229,5.77441-3.88867,9.74512-3.88867,2.79395,0,5.18457.71191,7.16895,2.13525,1.98535,1.42334,3.37598,3.50635,4.17285,6.24902l-3.72168.88135c-.62695-1.99805-1.58008-3.49951-2.86035-4.50537-1.28027-1.00537-2.87891-1.5083-4.79883-1.5083-3.13477,0-5.51172,1.02832-7.13086,3.08496-1.61914,2.05713-2.42871,4.81592-2.42871,8.27637,0,3.99609.85254,6.96729,2.55664,8.91309s3.92773,2.91846,6.66992,2.91846c2.24609,0,4.07129-.60693,5.47461-1.82178,1.4043-1.21436,2.38672-3.04248,2.94824-5.48486l3.78125.95996Z" fill="#fff"/>
    </g>
  </g>
  <g>
    <g>
      <polyline points="30.22249 84.74121 30.22249 219.68454 207.96731 219.68454" fill="none" stroke="#fff" stroke-miterlimit="10" stroke-width="3"/>
      <polygon points="22.29422 87.061 30.22249 73.33101 38.15075 87.061 22.29422 87.061" fill="#fff"/>
      <polygon points="205.64752 227.6128 219.37753 219.68454 205.64752 211.75627 205.64752 227.6128" fill="#fff"/>
    </g>
    <circle cx="67.73671" cy="156.55566" r="16.8272" fill="#10948b"/>
    <circle cx="104.12374" cy="188.3626" r="8.11673" fill="#e25a48"/>
    <circle cx="150.43778" cy="167.1494" r="10.59374" fill="#367ebd"/>
    <circle cx="116.21312" cy="125.72859" r="10.59374" fill="#fcbe35"/>
    <circle cx="164.74207" cy="92.45536" r="12.06406" fill="#f7933d"/>
    <circle cx="203.55347" cy="133.21149" r="8.51842" fill="#4555a0"/>
  </g>
</svg>